<mxfile host="Electron" modified="2024-05-02T22:37:49.215Z" agent="Mozilla/5.0 (X11; Linux x86_64) AppleWebKit/537.36 (KHTML, like Gecko) draw.io/24.2.5 Chrome/120.0.6099.109 Electron/28.1.0 Safari/537.36" etag="oGpZV3HyeFHY0Q-JTMiF" version="24.2.5" type="device">
  <diagram name="第 1 页" id="7cRwmn5VqVCn7UJpwB04">
    <mxGraphModel dx="658" dy="457" grid="1" gridSize="10" guides="1" tooltips="1" connect="1" arrows="1" fold="1" page="1" pageScale="1" pageWidth="827" pageHeight="1169" math="0" shadow="0">
      <root>
        <mxCell id="0" />
        <mxCell id="1" parent="0" />
        <mxCell id="VpaXbYWOEHTcGKpXJ_QQ-1" value="" style="verticalLabelPosition=bottom;shadow=0;dashed=0;align=center;html=1;verticalAlign=top;shape=mxgraph.electrical.transistors.nmos;pointerEvents=1;" parent="1" vertex="1">
          <mxGeometry x="380" y="240" width="60" height="100" as="geometry" />
        </mxCell>
        <mxCell id="VpaXbYWOEHTcGKpXJ_QQ-2" value="" style="verticalLabelPosition=bottom;shadow=0;dashed=0;align=center;html=1;verticalAlign=top;strokeWidth=1;shape=ellipse;" parent="1" vertex="1">
          <mxGeometry x="375" y="285" width="10" height="10" as="geometry" />
        </mxCell>
        <mxCell id="VpaXbYWOEHTcGKpXJ_QQ-3" value="" style="pointerEvents=1;verticalLabelPosition=bottom;shadow=0;dashed=0;align=center;html=1;verticalAlign=top;shape=mxgraph.electrical.signal_sources.signal_ground;" parent="1" vertex="1">
          <mxGeometry x="417.5" y="330" width="45" height="30" as="geometry" />
        </mxCell>
        <mxCell id="VpaXbYWOEHTcGKpXJ_QQ-4" value="V&lt;sub&gt;dd&lt;/sub&gt;" style="verticalLabelPosition=top;verticalAlign=bottom;shape=mxgraph.electrical.signal_sources.vdd;shadow=0;dashed=0;align=center;strokeWidth=1;fontSize=24;html=1;flipV=1;" parent="1" vertex="1">
          <mxGeometry x="410" y="108" width="60" height="50" as="geometry" />
        </mxCell>
        <mxCell id="VpaXbYWOEHTcGKpXJ_QQ-5" value="" style="verticalLabelPosition=bottom;shadow=0;dashed=0;align=center;html=1;verticalAlign=top;strokeWidth=1;shape=ellipse;" parent="1" vertex="1">
          <mxGeometry x="495" y="238" width="10" height="10" as="geometry" />
        </mxCell>
        <mxCell id="VpaXbYWOEHTcGKpXJ_QQ-6" value="&lt;font style=&quot;font-size: 20px;&quot;&gt;V&lt;sub&gt;in&lt;/sub&gt;&lt;/font&gt;" style="text;html=1;align=center;verticalAlign=middle;whiteSpace=wrap;rounded=0;" parent="1" vertex="1">
          <mxGeometry x="350" y="248" width="60" height="30" as="geometry" />
        </mxCell>
        <mxCell id="VpaXbYWOEHTcGKpXJ_QQ-7" value="&lt;font style=&quot;font-size: 20px;&quot;&gt;V&lt;sub&gt;out&lt;/sub&gt;&lt;/font&gt;" style="text;html=1;align=center;verticalAlign=middle;whiteSpace=wrap;rounded=0;" parent="1" vertex="1">
          <mxGeometry x="462.5" y="200" width="60" height="30" as="geometry" />
        </mxCell>
        <mxCell id="VpaXbYWOEHTcGKpXJ_QQ-8" value="" style="endArrow=none;html=1;strokeWidth=1;rounded=0;entryX=1;entryY=0;entryDx=0;entryDy=0;entryPerimeter=0;exitDx=0;exitDy=0;exitPerimeter=0;" parent="1" source="VpaXbYWOEHTcGKpXJ_QQ-17" target="VpaXbYWOEHTcGKpXJ_QQ-1" edge="1">
          <mxGeometry width="100" relative="1" as="geometry">
            <mxPoint x="440" y="218" as="sourcePoint" />
            <mxPoint x="480" y="280" as="targetPoint" />
          </mxGeometry>
        </mxCell>
        <mxCell id="VpaXbYWOEHTcGKpXJ_QQ-9" value="" style="endArrow=none;html=1;strokeWidth=1;rounded=0;entryX=0;entryY=0.5;entryDx=0;entryDy=0;exitX=1;exitY=0;exitDx=0;exitDy=0;exitPerimeter=0;" parent="1" source="VpaXbYWOEHTcGKpXJ_QQ-1" target="VpaXbYWOEHTcGKpXJ_QQ-5" edge="1">
          <mxGeometry width="100" relative="1" as="geometry">
            <mxPoint x="380" y="280" as="sourcePoint" />
            <mxPoint x="480" y="280" as="targetPoint" />
          </mxGeometry>
        </mxCell>
        <mxCell id="VpaXbYWOEHTcGKpXJ_QQ-13" value="&lt;span style=&quot;font-size: 20px;&quot;&gt;M&lt;sub&gt;1&lt;/sub&gt;&lt;/span&gt;" style="text;html=1;align=center;verticalAlign=middle;whiteSpace=wrap;rounded=0;" parent="1" vertex="1">
          <mxGeometry x="435" y="275" width="60" height="30" as="geometry" />
        </mxCell>
        <mxCell id="VpaXbYWOEHTcGKpXJ_QQ-14" value="&lt;span style=&quot;font-size: 20px;&quot;&gt;M&lt;sub&gt;2&lt;/sub&gt;&lt;/span&gt;" style="text;html=1;align=center;verticalAlign=middle;whiteSpace=wrap;rounded=0;" parent="1" vertex="1">
          <mxGeometry x="430" y="165" width="60" height="30" as="geometry" />
        </mxCell>
        <mxCell id="VpaXbYWOEHTcGKpXJ_QQ-15" value="" style="verticalLabelPosition=bottom;shadow=0;dashed=0;align=center;html=1;verticalAlign=top;shape=mxgraph.electrical.transistors.pmos;pointerEvents=1;" parent="1" vertex="1">
          <mxGeometry x="380" y="130" width="60" height="100" as="geometry" />
        </mxCell>
        <mxCell id="VpaXbYWOEHTcGKpXJ_QQ-16" value="" style="endArrow=none;html=1;strokeWidth=1;rounded=0;entryX=0;entryY=0.5;entryDx=0;entryDy=0;entryPerimeter=0;exitX=1;exitY=1;exitDx=0;exitDy=0;exitPerimeter=0;" parent="1" source="VpaXbYWOEHTcGKpXJ_QQ-15" target="VpaXbYWOEHTcGKpXJ_QQ-15" edge="1">
          <mxGeometry width="100" relative="1" as="geometry">
            <mxPoint x="370" y="270" as="sourcePoint" />
            <mxPoint x="470" y="270" as="targetPoint" />
            <Array as="points">
              <mxPoint x="380" y="227" />
            </Array>
          </mxGeometry>
        </mxCell>
        <mxCell id="VpaXbYWOEHTcGKpXJ_QQ-18" value="" style="endArrow=none;html=1;strokeWidth=1;rounded=0;entryDx=0;entryDy=0;entryPerimeter=0;exitX=1;exitY=0.5;exitDx=0;exitDy=0;exitPerimeter=0;" parent="1" target="VpaXbYWOEHTcGKpXJ_QQ-17" edge="1">
          <mxGeometry width="100" relative="1" as="geometry">
            <mxPoint x="440" y="218" as="sourcePoint" />
            <mxPoint x="440" y="243" as="targetPoint" />
          </mxGeometry>
        </mxCell>
        <mxCell id="VpaXbYWOEHTcGKpXJ_QQ-17" value="" style="shape=waypoint;sketch=0;fillStyle=solid;size=6;pointerEvents=1;points=[];fillColor=none;resizable=0;rotatable=0;perimeter=centerPerimeter;snapToPoint=1;" parent="1" vertex="1">
          <mxGeometry x="430" y="217" width="20" height="20" as="geometry" />
        </mxCell>
      </root>
    </mxGraphModel>
  </diagram>
</mxfile>
